# xmcd CD database file
#
# Track frame offsets:
#	150
#	43493
#	66834
#	93601
#	127601
#	167840
#	192936
#	217448
#	243956
#	275465
#	309718
#
# Disc length: 4433 seconds
#
# Revision: 4
# Processed by: cddbd v1.5.2PL0 Copyright (c) Steve Scherf et al.
# Submitted via: CDex 1.70beta2
#
DISCID=a9114f0b
DTITLE=Frank Herbert - DUNE - Der Wüstenplanet - Teil1 - CD06
DYEAR=2008
DGENRE=Hörbuch
TTITLE0=057 - DUNE - Der Wüstenplanet - Teil 1
TTITLE1=058 - DUNE - Der Wüstenplanet - Teil 1
TTITLE2=059 - DUNE - Der Wüstenplanet - Teil 1
TTITLE3=060 - DUNE - Der Wüstenplanet - Teil 1
TTITLE4=061 - DUNE - Der Wüstenplanet - Teil 1
TTITLE5=062 - DUNE - Der Wüstenplanet - Teil 1
TTITLE6=063 - DUNE - Der Wüstenplanet - Teil 1
TTITLE7=064 - DUNE - Der Wüstenplanet - Teil 1
TTITLE8=067 - DUNE - Der Wüstenplanet - Teil 1
TTITLE9=068 - DUNE - Der Wüstenplanet - Teil 1
TTITLE10=069 - DUNE - Der Wüstenplanet - Teil 1
EXTD=YEAR: 2008
EXTT0=
EXTT1=
EXTT2=
EXTT3=
EXTT4=
EXTT5=
EXTT6=
EXTT7=
EXTT8=
EXTT9=
EXTT10=
PLAYORDER=
